<?xml version="1.0" encoding="UTF-8"?>
<svg xmlns="http://www.w3.org/2000/svg" version="1.1" viewBox="0 0 180 150">
  <defs>
    <style>
      .cls-1 {
        fill: #c1c1c1;
      }
    </style>
  </defs>
  <!-- Generator: Adobe Illustrator 28.7.1, SVG Export Plug-In . SVG Version: 1.2.0 Build 142)  -->
  <g>
    <g id="Layer_1">
      <path class="cls-1" d="M122.14,78.54l-11.55-48.31c-.5-2.08-2.36-3.55-4.5-3.55h-4.08c-1.68-1.44-3.62-2.58-5.75-3.35,3.6-2.14,6.02-6.07,6.02-10.56,0-6.78-5.5-12.28-12.28-12.28s-12.28,5.5-12.28,12.28c0,4.49,2.42,8.42,6.02,10.56-2.12.76-4.07,1.91-5.75,3.35h-4.08c-2.14,0-4,1.47-4.49,3.55l-11.55,48.31c-.59,2.48.94,4.98,3.42,5.57,2.48.59,4.98-.94,5.57-3.42l4.66-19.48v9.16c0,3.24.83,6.27,2.29,8.92v63.27c0,3.83,3.1,6.93,6.93,6.93s6.93-3.1,6.93-6.93v-53.86c.76.1,1.54.15,2.33.15s1.57-.06,2.33-.15v53.86c0,3.83,3.1,6.93,6.93,6.93s6.93-3.1,6.93-6.93v-63.27c1.46-2.65,2.29-5.68,2.29-8.92v-9.16l4.66,19.48c.51,2.12,2.4,3.55,4.49,3.55.36,0,.72-.04,1.08-.13,2.48-.59,4.01-3.09,3.42-5.57Z"/>
    </g>
  </g>
</svg>